<?xml version="1.0" encoding="iso-8859-1"?>
<!-- Generator: Adobe Illustrator 16.0.0, SVG Export Plug-In . SVG Version: 6.00 Build 0)  -->
<!DOCTYPE svg PUBLIC "-//W3C//DTD SVG 1.1//EN" "http://www.w3.org/Graphics/SVG/1.1/DTD/svg11.dtd">
<svg xmlns="http://www.w3.org/2000/svg" xmlns:xlink="http://www.w3.org/1999/xlink" version="1.1" id="Capa_1" x="0px" y="0px" width="512px" height="512px" viewBox="0 0 564.188 564.188" style="enable-background:new 0 0 564.188 564.188;" xml:space="preserve">
<g>
	<g id="iconos_3_">
		<path d="M290.996,193.421c4.332-4.743,7.229-11.332,7.229-19.89c0-5.288-4.284-9.562-9.562-9.562s-9.562,4.274-9.562,9.562    c0,3.547-0.994,5.718-2.266,7.085l-2.295-2.075c-1.846-1.664-4.686-1.645-6.493,0.077l-3.223,3.05    c-3.203-1.396-5.689-4.236-5.689-9.735c0-8.645,8.578-10.738,10.193-11.044c4.619-0.794,7.985-4.772,7.985-9.438v-27.138h6.693    h3.921l13.378-66.938h-9.648h-4.781V9.562h-9.562v47.812h-4.781h-4.781V9.562h-9.562v47.812h-14.114l9.486,66.938h4.15h0.478    v20.225c-8.606,3.911-18.169,12.307-18.169,27.387c0,10.643,4.361,18.245,10.624,23.17L83.06,353.812H0v200.812h564.188V353.812    h-95.769L290.996,193.421z M259.469,199.914c3.873,1.368,7.966,2.094,12.001,2.094c4.026,0,8.014-1.004,11.695-2.773    l170.996,154.578H96.973L259.469,199.914z M28.688,382.5h9.562v143.438h-9.562V382.5z M57.375,382.5H76.5v143.438H57.375V382.5z     M95.625,382.5h19.125v143.438H95.625V382.5z M133.875,382.5H153v143.438h-19.125V382.5z M172.125,382.5h19.125v143.438h-19.125    V382.5z M210.375,382.5H229.5v143.438h-19.125V382.5z M248.625,382.5h19.125v143.438h-19.125V382.5z M286.875,382.5H306v143.438    h-19.125V382.5z M325.125,382.5h19.125v143.438h-19.125V382.5z M363.375,382.5H382.5v143.438h-19.125V382.5z M401.625,382.5    h19.125v143.438h-19.125V382.5z M439.875,382.5H459v143.438h-19.125V382.5z M535.5,525.938h-19.125V382.5H535.5V525.938z     M497.25,525.938h-19.125V382.5h19.125V525.938z" fill="#666666"/>
	</g>
</g>
<g>
</g>
<g>
</g>
<g>
</g>
<g>
</g>
<g>
</g>
<g>
</g>
<g>
</g>
<g>
</g>
<g>
</g>
<g>
</g>
<g>
</g>
<g>
</g>
<g>
</g>
<g>
</g>
<g>
</g>
</svg>
